<svg width="27" height="22" viewBox="0 0 27 22" fill="none" xmlns="http://www.w3.org/2000/svg">
<path d="M1.15727 20.785L1.34323 20.618L1.15727 20.785C1.42134 21.079 1.7856 21.25 2.17188 21.25H17.0156C17.4019 21.25 17.7662 21.079 18.0302 20.785C18.2935 20.492 18.4375 20.0998 18.4375 19.6957C18.4375 19.2915 18.2935 18.8993 18.0302 18.6063C17.7662 18.3123 17.4019 18.1413 17.0156 18.1413H2.17188C1.7856 18.1413 1.42134 18.3123 1.15727 18.6063L1.34224 18.7724L1.15727 18.6063C0.893984 18.8993 0.75 19.2915 0.75 19.6957C0.75 20.0998 0.893984 20.492 1.15727 20.785ZM1.15727 1.21495C0.893984 1.508 0.75 1.90024 0.75 2.30435C0.75 2.70846 0.893984 3.1007 1.15727 3.39374C1.42134 3.68767 1.7856 3.8587 2.17188 3.8587H18.5781C18.9644 3.8587 19.3287 3.68767 19.5927 3.39374C19.856 3.1007 20 2.70846 20 2.30435C20 1.90024 19.856 1.508 19.5927 1.21495C19.3287 0.921027 18.9644 0.75 18.5781 0.75H2.17188C1.7856 0.75 1.42134 0.921027 1.15727 1.21495ZM2.17188 9.44565C1.7856 9.44565 1.42134 9.61668 1.15727 9.91061C0.893984 10.2037 0.75 10.5959 0.75 11C0.75 11.4041 0.893984 11.7963 1.15727 12.0894C1.42134 12.3833 1.7856 12.5543 2.17188 12.5543H24.8281C25.2144 12.5543 25.5787 12.3833 25.8427 12.0894C26.106 11.7963 26.25 11.4041 26.25 11C26.25 10.5959 26.106 10.2037 25.8427 9.91061C25.5787 9.61668 25.2144 9.44565 24.8281 9.44565H2.17188Z" fill="#222222" stroke="#222222" stroke-width="0.5"/>
</svg>
