<svg width="18" height="20" viewBox="0 0 18 20" fill="none" xmlns="http://www.w3.org/2000/svg">
<path d="M7.78496 6.27197V9.12197H0.157715L0.157715 11.022H7.78496V13.872L12.552 10.072L7.78496 6.27197Z" fill="#222222"/>
<path d="M2.74561 12.922H4.65242V17.672H16.0933V2.47196H4.65242V7.22196H2.74561V1.52196C2.74561 1.27 2.84605 1.02837 3.02485 0.850209C3.20365 0.672049 3.44615 0.57196 3.69901 0.57196L17.0467 0.57196C17.2995 0.57196 17.542 0.672049 17.7208 0.850209C17.8996 1.02837 18.0001 1.27 18.0001 1.52196V18.622C18.0001 18.8739 17.8996 19.1156 17.7208 19.2937C17.542 19.4719 17.2995 19.572 17.0467 19.572H3.69901C3.44615 19.572 3.20365 19.4719 3.02485 19.2937C2.84605 19.1156 2.74561 18.8739 2.74561 18.622L2.74561 12.922Z" fill="#222222"/>
</svg>
