<svg width="50" height="56" viewBox="0 0 50 56" fill="none" xmlns="http://www.w3.org/2000/svg">
<path d="M25 15.2312C26.3807 15.2312 27.5 14.1054 27.5 12.7167C27.5 11.328 26.3807 10.2022 25 10.2022C23.6193 10.2022 22.5 11.328 22.5 12.7167C22.5 14.1054 23.6193 15.2312 25 15.2312Z" fill="#FF8A42"/>
<path d="M10 40.3762H40V45.4052H10V40.3762ZM20 27.3762L26.98 34.4017L36.81 24.5072L40 27.8037V17.7457H30L33.275 20.9517L26.9775 27.2857L20 20.2602L10 30.3182L13.535 33.8737L20 27.3762Z" fill="#FF8A42"/>
<path d="M42.5 5.17321H34.255C34.0074 4.80297 33.7403 4.44624 33.455 4.10455L33.43 4.07438C31.5925 1.92341 29.0086 0.558296 26.205 0.257367C25.4087 0.106268 24.5913 0.106268 23.795 0.257367C20.9914 0.558296 18.4075 1.92341 16.57 4.07438L16.545 4.10455C16.2597 4.44542 15.9927 4.80131 15.745 5.1707V5.17321H7.5C5.51149 5.17521 3.60498 5.97061 2.19889 7.38486C0.7928 8.79911 0.00198554 10.7167 0 12.7167V47.9197C0.00198554 49.9197 0.7928 51.8373 2.19889 53.2515C3.60498 54.6658 5.51149 55.4612 7.5 55.4632H42.5C44.4885 55.4612 46.395 54.6658 47.8011 53.2515C49.2072 51.8373 49.998 49.9197 50 47.9197V12.7167C49.998 10.7167 49.2072 8.79911 47.8011 7.38486C46.395 5.97061 44.4885 5.17521 42.5 5.17321ZM45 47.9197C45 48.5866 44.7366 49.2262 44.2678 49.6977C43.7989 50.1693 43.163 50.4342 42.5 50.4342H7.5C6.83696 50.4342 6.20107 50.1693 5.73223 49.6977C5.26339 49.2262 5 48.5866 5 47.9197V12.7167C5 12.0498 5.26339 11.4103 5.73223 10.9387C6.20107 10.4671 6.83696 10.2022 7.5 10.2022H18.875C19.1619 8.78116 19.9284 7.50356 21.0447 6.58589C22.1609 5.66822 23.5583 5.16691 25 5.16691C26.4417 5.16691 27.8391 5.66822 28.9553 6.58589C30.0716 7.50356 30.8381 8.78116 31.125 10.2022H42.5C43.163 10.2022 43.7989 10.4671 44.2678 10.9387C44.7366 11.4103 45 12.0498 45 12.7167V47.9197Z" fill="#FF8A42"/>
</svg>
