<svg xmlns="http://www.w3.org/2000/svg" style="display: none;">
    <symbol id="qAnswer" viewBox="0 0 50 51">
        <path fill="currentColor" fill-rule="evenodd" clip-rule="evenodd"
            d="M25 0.144043C38.8075 0.144043 50 11.3365 50 25.144C50 38.9515 38.8075 50.144 25 50.144C11.1925 50.144 0 38.9515 0 25.144C0 11.3365 11.1925 0.144043 25 0.144043ZM29 34.769C29 37.1814 27.9813 38.144 25.5 38.144C23.0187 38.144 22 37.1814 22 34.769C22 32.3567 23.0187 31.394 25.5 31.394C27.9813 31.394 29 32.3567 29 34.769ZM23.2859 27.3971L22.5209 12.5221C22.4823 11.7724 23.0971 11.144 23.8692 11.144H27.1308C27.9029 11.144 28.5177 11.7724 28.4791 12.5221L27.7141 27.3971C27.6782 28.0956 27.0852 28.644 26.3658 28.644H24.6342C23.9148 28.644 23.3218 28.0956 23.2859 27.3971Z" />
    </symbol>

    <symbol id="qArrow" viewBox="0 0 50 51">
        <path fill="currentColor" fill-rule="evenodd" clip-rule="evenodd"
            d="M50 25.144C50 11.3365 38.8075 0.144043 25 0.144043C11.1925 0.144043 0 11.3365 0 25.144C0 38.9515 11.1925 50.144 25 50.144C38.8075 50.144 50 38.9515 50 25.144ZM26.8105 33.3799C26.3359 33.869 25.6921 34.144 25.0206 34.144C24.349 34.144 23.7052 33.869 23.2307 33.3799L13.7663 23.6218C13.5274 23.3824 13.3368 23.0967 13.2053 22.7812C13.0728 22.463 13.003 22.121 13.0001 21.7748C12.9972 21.4287 13.0611 21.0855 13.1883 20.765C13.3154 20.4446 13.5033 20.1534 13.7408 19.9084C13.9784 19.6635 14.261 19.4697 14.5722 19.3384C14.8833 19.2072 15.2168 19.1411 15.553 19.1441C15.8893 19.1472 16.2215 19.2192 16.5304 19.356C16.8368 19.4917 17.114 19.6884 17.3463 19.9347L25.0206 27.8472L32.7102 19.9191C33.1875 19.4438 33.827 19.1806 34.491 19.1866C35.1551 19.1925 35.79 19.4671 36.2592 19.9509C36.7283 20.4345 36.9941 21.0886 36.9999 21.772C37.0057 22.4554 36.7509 23.114 36.29 23.606L26.8105 33.3799Z" />
    </symbol>

    <symbol id="qQuestionMark" viewBox="0 0 50 51">
        <path fill="currentColor"
            d="M25 0.144043C38.8075 0.144043 50 11.3365 50 25.144C50 38.9515 38.8075 50.144 25 50.144C11.1925 50.144 0 38.9515 0 25.144C0 11.3365 11.1925 0.144043 25 0.144043ZM25 35.144C24.337 35.144 23.7011 35.4074 23.2322 35.8763C22.7634 36.3451 22.5 36.981 22.5 37.644C22.5 38.3071 22.7634 38.943 23.2322 39.4118C23.7011 39.8807 24.337 40.144 25 40.144C25.663 40.144 26.2989 39.8807 26.7678 39.4118C27.2366 38.943 27.5 38.3071 27.5 37.644C27.5 36.981 27.2366 36.3451 26.7678 35.8763C26.2989 35.4074 25.663 35.144 25 35.144ZM25 11.394C22.5965 11.394 20.2914 12.3488 18.5918 14.0484C16.8923 15.7479 15.9375 18.053 15.9375 20.4565C15.9375 21.1196 16.2009 21.7555 16.6697 22.2243C17.1386 22.6932 17.7745 22.9565 18.4375 22.9565C19.1005 22.9565 19.7364 22.6932 20.2053 22.2243C20.6741 21.7555 20.9375 21.1196 20.9375 20.4565C20.9383 19.7191 21.1399 18.9959 21.5205 18.3643C21.9011 17.7327 22.4464 17.2166 23.098 16.8713C23.7496 16.5261 24.4829 16.3647 25.2192 16.4045C25.9556 16.4443 26.6672 16.6838 27.2778 17.0972C27.8884 17.5107 28.3749 18.0825 28.6852 18.7515C28.9956 19.4204 29.118 20.1612 29.0393 20.8944C28.9607 21.6276 28.6839 22.3256 28.2388 22.9135C27.7937 23.5014 27.1969 23.957 26.5125 24.2315C24.8225 24.9065 22.5 26.6365 22.5 29.519V30.144C22.5 30.8071 22.7634 31.443 23.2322 31.9118C23.7011 32.3806 24.337 32.644 25 32.644C25.663 32.644 26.2989 32.3806 26.7678 31.9118C27.2366 31.443 27.5 30.8071 27.5 30.144C27.5 29.534 27.625 29.229 28.1525 28.969L28.37 28.869C30.322 28.0838 31.9401 26.6439 32.9468 24.7963C33.9536 22.9487 34.2862 20.8085 33.8878 18.7425C33.4894 16.6765 32.3847 14.8134 30.7631 13.4727C29.1415 12.132 27.1041 11.3971 25 11.394Z" />
    </symbol>
</svg>