<svg width="52" height="55" viewBox="0 0 52 55" fill="none" xmlns="http://www.w3.org/2000/svg">
<path d="M20.2308 22.852C23.0359 22.852 25.7262 21.7253 27.7098 19.7197C29.6933 17.7141 30.8077 14.9939 30.8077 12.1576C30.8077 9.32124 29.6933 6.60106 27.7098 4.59547C25.7262 2.58987 23.0359 1.46313 20.2308 1.46313C17.4256 1.46313 14.7353 2.58987 12.7518 4.59547C10.7682 6.60106 9.65385 9.32124 9.65385 12.1576C9.65385 14.9939 10.7682 17.7141 12.7518 19.7197C14.7353 21.7253 17.4256 22.852 20.2308 22.852ZM20.2308 5.35202C21.1149 5.35228 21.9904 5.52861 22.8071 5.87096C23.6239 6.2133 24.3659 6.71495 24.9909 7.34727C25.6159 7.97959 26.1117 8.73018 26.4498 9.5562C26.7879 10.3822 26.9618 11.2675 26.9615 12.1615C26.9613 13.0554 26.7869 13.9406 26.4483 14.7664C26.1097 15.5923 25.6136 16.3426 24.9882 16.9745C24.3629 17.6065 23.6205 18.1077 22.8036 18.4496C21.9866 18.7915 21.1111 18.9673 20.2269 18.967C18.4413 18.9665 16.729 18.2488 15.4668 16.9718C14.2045 15.6948 13.4956 13.963 13.4962 12.1576C13.4967 10.3521 14.2065 8.62081 15.4695 7.34452C16.7325 6.06823 18.4451 5.35151 20.2308 5.35202ZM6.76923 30.6298H27.1423L31.6308 26.7409H6.76923C5.23914 26.7409 3.77171 27.3555 2.68977 28.4495C1.60783 29.5434 1 31.0271 1 32.5742V34.5187C1 42.1837 8.15 50.0742 20.2308 50.0742V46.1854C10.3538 46.1854 4.84615 40.1109 4.84615 34.5187V32.5742C4.84615 32.0585 5.04876 31.564 5.40941 31.1993C5.77006 30.8347 6.2592 30.6298 6.76923 30.6298ZM25.4192 37.2448C24.9982 37.6099 24.6603 38.0626 24.4286 38.5721C24.1969 39.0816 24.077 39.6357 24.0769 40.1965V52.0187C24.0769 52.5344 24.2795 53.029 24.6402 53.3936C25.0008 53.7583 25.49 53.9631 26 53.9631H31.7692C32.2793 53.9631 32.7684 53.7583 33.1291 53.3936C33.4897 53.029 33.6923 52.5344 33.6923 52.0187V44.2409C33.6923 43.7252 33.8949 43.2306 34.2556 42.866C34.6162 42.5013 35.1054 42.2965 35.6154 42.2965H39.4615C39.9716 42.2965 40.4607 42.5013 40.8214 42.866C41.182 43.2306 41.3846 43.7252 41.3846 44.2409V52.0187C41.3846 52.5344 41.5872 53.029 41.9479 53.3936C42.3085 53.7583 42.7977 53.9631 43.3077 53.9631H49.0769C49.587 53.9631 50.0761 53.7583 50.4367 53.3936C50.7974 53.029 51 52.5344 51 52.0187V40.1965C51 39.0609 50.5077 37.9837 49.6577 37.2448L38.7923 27.8259C38.4437 27.5236 37.9996 27.3575 37.5404 27.3575C37.0811 27.3575 36.6371 27.5236 36.2885 27.8259L25.4192 37.2448Z" fill="#FF8A42" stroke="#FF8A42"/>
</svg>
