<svg width="100" height="65" viewBox="0 0 100 65" fill="none" xmlns="http://www.w3.org/2000/svg">
    <path
        d="M49.7531 18.1943C49.9062 18.1074 50.0938 18.1074 50.2469 18.1943L53.8838 20.2595C54.3751 20.5385 54.099 21.2906 53.5439 21.1856L50.093 20.5324C50.0315 20.5207 49.9685 20.5207 49.907 20.5324L46.4561 21.1856C45.901 21.2906 45.6249 20.5385 46.1162 20.2595L49.7531 18.1943Z"
        fill="#222222" />
    <path
        d="M49.5002 4.80903C49.8095 4.63059 50.1905 4.63059 50.4998 4.80903L63.0002 12.0215C63.6669 12.4062 64.5 11.925 64.5 11.1553V8.78917C64.5 8.4318 64.3093 8.1016 63.9998 7.923L50.4998 0.133834C50.1905 -0.0446114 49.8095 -0.0446113 49.5002 0.133834L36.0002 7.923C35.6907 8.1016 35.5 8.4318 35.5 8.78917V11.1553C35.5 11.925 36.3331 12.4062 36.9998 12.0215L49.5002 4.80903Z"
        fill="#FF8A42" />
    <path
        d="M49.7531 28.1944C49.9062 28.1074 50.0938 28.1074 50.2469 28.1944L53.8838 30.2595C54.3751 30.5385 54.099 31.2907 53.5439 31.1856L50.093 30.5324C50.0315 30.5208 49.9685 30.5208 49.907 30.5324L46.4561 31.1856C45.901 31.2907 45.6249 30.5385 46.1162 30.2595L49.7531 28.1944Z"
        fill="#222222" />
    <path
        d="M49.7531 38.1944C49.9062 38.1074 50.0938 38.1074 50.2469 38.1944L53.8838 40.2595C54.3751 40.5385 54.099 41.2907 53.5439 41.1856L50.093 40.5324C50.0315 40.5208 49.9685 40.5208 49.907 40.5324L46.4561 41.1856C45.901 41.2907 45.6249 40.5385 46.1162 40.2595L49.7531 38.1944Z"
        fill="#222222" />
    <path fill-rule="evenodd" clip-rule="evenodd"
        d="M66.568 29.5032C66.5367 28.7629 67.2932 28.2468 67.971 28.5461L84.2273 35.723C84.5512 35.866 84.7753 36.1696 84.8166 36.5213L87.4103 58.628L99.2832 62.1338C99.7083 62.2593 100 62.6497 100 63.0929V63.1437C100 63.7688 99.4329 64.2406 98.8182 64.127L50.1818 55.1365C50.0616 55.1143 49.9384 55.1143 49.8182 55.1365L1.18177 64.127C0.567089 64.2406 0 63.7688 0 63.1437L0 63.0929C0 62.6497 0.291741 62.2593 0.716812 62.1338L12.3316 58.7043L12.9663 51.4353L20.0866 49.0189C20.4573 48.8931 20.7193 48.5609 20.7553 48.171C20.8226 47.4429 20.1054 46.8949 19.4205 47.1511L13.1351 49.5019L13.4608 45.7715L20.1783 42.8831C20.4975 42.7459 20.716 42.4451 20.748 42.0992C20.8155 41.3684 20.0628 40.8413 19.3991 41.1545L13.626 43.8788L13.9431 40.248L20.4942 36.959C20.7474 36.8319 20.9184 36.5844 20.9476 36.3026C21.0156 35.6483 20.3323 35.1785 19.7458 35.476L14.1101 38.3349L14.955 28.6577C14.9832 28.3347 15.1663 28.0454 15.4462 27.8816L31.938 18.2301C32.6169 17.8328 33.4675 18.3387 33.4426 19.1249L33.2683 24.615C33.257 24.971 33.0572 25.2941 32.7437 25.4632L25.9931 29.1069C25.6868 29.2722 25.4885 29.585 25.4695 29.9325L24.0926 55.2315L34.1656 52.2572L35.4793 17.1303C35.4922 16.7865 35.6809 16.4734 35.9789 16.3015L49.5002 8.49998C49.8095 8.32153 50.1905 8.32153 50.4998 8.49998L64.0211 16.3015C64.3191 16.4734 64.5078 16.7865 64.5207 17.1303L65.8344 52.2572L82.736 57.2478L80.8172 39.4599C80.7761 39.0794 80.5215 38.7557 80.1614 38.6261L67.3822 34.0296C66.9999 33.8921 66.7388 33.5369 66.7216 33.1309L66.568 29.5032ZM59.5 19.8656V50.3868L50.2832 47.6653C50.0983 47.6107 49.9017 47.6107 49.7168 47.6653L40.5 50.3868V19.8656C40.5 19.5063 40.6927 19.1746 41.0049 18.9968L49.5049 14.1532C49.8118 13.9783 50.1882 13.9783 50.4951 14.1532L58.9951 18.9968C59.3073 19.1746 59.5 19.5063 59.5 19.8656Z"
        fill="#222222" />
</svg>