<svg width="21" height="22" viewBox="0 0 21 22" fill="none" xmlns="http://www.w3.org/2000/svg">
<path d="M20.532 16.3992C20.299 16.1397 19.4762 15.3724 17.9637 14.3572C16.44 13.3332 15.3163 12.6948 14.9939 12.5459C14.9655 12.5327 14.9342 12.5279 14.9034 12.5319C14.8726 12.5359 14.8434 12.5487 14.8189 12.5687C14.2997 12.9921 13.4256 13.7696 13.3787 13.8116C13.076 14.0828 13.076 14.0828 12.8283 13.9983C12.3925 13.849 11.0389 13.0975 9.85943 11.8616C8.67993 10.6257 7.92411 9.17561 7.78125 8.72055C7.69955 8.46105 7.69955 8.46105 7.95982 8.14461C8 8.0956 8.74422 7.18174 9.14914 6.6394C9.16834 6.61386 9.18053 6.58334 9.18438 6.5511C9.18824 6.51887 9.18362 6.48614 9.17102 6.45645C9.0286 6.119 8.41787 4.94471 7.43838 3.35176C6.46603 1.77095 5.73298 0.910764 5.48476 0.667131C5.46198 0.64466 5.43383 0.629027 5.40326 0.621881C5.3727 0.614735 5.34086 0.61634 5.31109 0.626526C4.44343 0.938261 3.60626 1.33601 2.81103 1.81435C2.04334 2.28091 1.31654 2.81739 0.639093 3.41757C0.615445 3.43859 0.597716 3.46594 0.587806 3.49669C0.577896 3.52744 0.57618 3.56043 0.582842 3.59213C0.676148 4.04672 1.12214 5.94444 2.50611 8.57307C3.9182 11.2558 4.8968 12.6303 6.97051 14.7908C9.04423 16.9513 10.4005 18.036 12.9693 19.5123C15.4837 20.9591 17.2998 21.4259 17.7337 21.5225C17.7641 21.5294 17.7957 21.5276 17.8252 21.5172C17.8547 21.5068 17.8809 21.4884 17.9012 21.4637C18.4751 20.7555 18.9882 19.9956 19.4342 19.193C19.8917 18.3616 20.2722 17.4864 20.5704 16.5793C20.58 16.5485 20.5814 16.5155 20.5747 16.4838C20.5679 16.4521 20.5532 16.4229 20.532 16.3992Z" fill="#222222"/>
</svg>
