<svg width="11" height="13" viewBox="0 0 11 13" fill="none" xmlns="http://www.w3.org/2000/svg">
<path d="M8.36006 5.17998V3.97998C8.36006 2.29998 7.04006 0.97998 5.36006 0.97998C3.68006 0.97998 2.36006 2.29998 2.36006 3.97998V5.17998C1.34006 5.17998 0.560059 5.95998 0.560059 6.97998V11.18C0.560059 12.2 1.34006 12.98 2.36006 12.98H8.36006C9.38006 12.98 10.1601 12.2 10.1601 11.18V6.97998C10.1601 5.95998 9.38006 5.17998 8.36006 5.17998ZM3.56006 3.97998C3.56006 2.95998 4.34006 2.17998 5.36006 2.17998C6.38006 2.17998 7.16006 2.95998 7.16006 3.97998V5.17998H3.56006V3.97998Z" fill="#969696"/>
</svg>
