<svg width="17" height="21" viewBox="0 0 17 21" fill="none" xmlns="http://www.w3.org/2000/svg">
<path d="M8.86891 0.962891C4.60007 0.962891 0.737793 4.23566 0.737793 9.29728C0.737793 12.5294 3.22795 16.3307 8.19809 20.7113C8.58432 21.0467 9.16366 21.0467 9.54989 20.7113C14.5099 16.3307 17 12.5294 17 9.29728C17 4.23566 13.1377 0.962891 8.86891 0.962891ZM8.86891 11.1268C7.75088 11.1268 6.83613 10.212 6.83613 9.094C6.83613 7.97598 7.75088 7.06123 8.86891 7.06123C9.98694 7.06123 10.9017 7.97598 10.9017 9.094C10.9017 10.212 9.98694 11.1268 8.86891 11.1268Z" fill="white"/>
</svg>
