<svg width="50" height="51" viewBox="0 0 50 51" fill="none" xmlns="http://www.w3.org/2000/svg">
<path fill-rule="evenodd" clip-rule="evenodd" d="M50 25.144C50 11.3365 38.8075 0.144043 25 0.144043C11.1925 0.144043 0 11.3365 0 25.144C0 38.9515 11.1925 50.144 25 50.144C38.8075 50.144 50 38.9515 50 25.144ZM25.0222 33.144C25.5001 33.144 25.9586 32.9518 26.2966 32.6096L36.494 22.2826C36.8223 21.9383 37.004 21.4772 36.9999 20.9986C36.9958 20.5199 36.8062 20.0621 36.472 19.7236C36.1378 19.3851 35.6857 19.1931 35.213 19.189C34.7404 19.1848 34.2851 19.3688 33.9451 19.7014L25.0222 28.7376L16.0992 19.7014C15.9329 19.527 15.734 19.3879 15.5141 19.2923C15.2942 19.1966 15.0576 19.1462 14.8183 19.1441C14.5789 19.142 14.3416 19.1882 14.12 19.28C13.8985 19.3718 13.6972 19.5073 13.528 19.6787C13.3587 19.8501 13.2249 20.0539 13.1342 20.2783C13.0436 20.5026 12.998 20.743 13.0001 20.9854C13.0021 21.2278 13.0519 21.4674 13.1463 21.6901C13.2408 21.9128 13.3781 22.1142 13.5503 22.2826L23.7477 32.6096C24.0857 32.9518 24.5442 33.144 25.0222 33.144Z" fill="white"/>
</svg>
