<svg width="50" height="54" viewBox="0 0 50 54" fill="none" xmlns="http://www.w3.org/2000/svg">
<path fill-rule="evenodd" clip-rule="evenodd" d="M12.625 10.5726C12.9877 8.05403 14.1104 5.70611 15.843 3.84261C17.5757 1.9791 19.8359 0.688773 22.3214 0.144043V6.10833C22.3214 6.81873 22.6036 7.50004 23.106 8.00237C23.6083 8.50469 24.2896 8.7869 25 8.7869C25.7104 8.7869 26.3917 8.50469 26.894 8.00237C27.3964 7.50004 27.6786 6.81873 27.6786 6.10833V0.144043C30.1635 0.689416 32.4228 1.98003 34.1548 3.84348C35.8868 5.70693 37.009 8.0545 37.3714 10.5726H38.3929C39.1033 10.5726 39.7846 10.8548 40.2869 11.3572C40.7892 11.8595 41.0714 12.5408 41.0714 13.2512C41.0714 13.9616 40.7892 14.6429 40.2869 15.1452C39.7846 15.6476 39.1033 15.9298 38.3929 15.9298H37.5C37.5 19.245 36.183 22.4244 33.8388 24.7686C31.4946 27.1128 28.3152 28.4298 25 28.4298C21.6848 28.4298 18.5054 27.1128 16.1612 24.7686C13.817 22.4244 12.5 19.245 12.5 15.9298H11.6071C10.8967 15.9298 10.2154 15.6476 9.71311 15.1452C9.21078 14.6429 8.92857 13.9616 8.92857 13.2512C8.92857 12.5408 9.21078 11.8595 9.71311 11.3572C10.2154 10.8548 10.8967 10.5726 11.6071 10.5726H12.625ZM25 23.0726C23.1056 23.0726 21.2888 22.3201 19.9492 20.9805C18.6097 19.641 17.8571 17.8242 17.8571 15.9298H32.1429C32.1429 17.8242 31.3903 19.641 30.0508 20.9805C28.7112 22.3201 26.8944 23.0726 25 23.0726ZM5.35714 44.5012C5.35714 43.7726 6.14286 41.6119 10.0714 39.2905C10.3337 39.136 10.5992 38.9872 10.8679 38.844L14.3214 48.0726H8.92857C7.98137 48.0726 7.07296 47.6963 6.40319 47.0266C5.73342 46.3568 5.35714 45.4484 5.35714 44.5012ZM20.05 48.0726L15.8393 36.8512C18.8173 35.9952 21.9014 35.5647 25 35.5726C28.3214 35.5726 31.4286 36.0548 34.1607 36.8476L29.9536 48.0726H20.05ZM35.675 48.0726H41.0714C42.0186 48.0726 42.927 47.6963 43.5968 47.0266C44.2666 46.3568 44.6429 45.4484 44.6429 44.5012C44.6429 43.7726 43.8571 41.6119 39.9286 39.2905C39.6663 39.136 39.4008 38.9872 39.1321 38.844L35.675 48.0726ZM25 30.2155C11.25 30.2155 0 37.3583 0 44.5012C0 46.8692 0.940686 49.1402 2.61512 50.8146C4.28955 52.4891 6.56057 53.4298 8.92857 53.4298H41.0714C43.4394 53.4298 45.7104 52.4891 47.3849 50.8146C49.0593 49.1402 50 46.8692 50 44.5012C50 37.3583 38.75 30.2155 25 30.2155Z" fill="#FF8A42"/>
</svg>
