<svg width="130" height="130" viewBox="0 0 130 130" fill="none" xmlns="http://www.w3.org/2000/svg">
<rect width="130" height="130" rx="20" fill="white"/>
<path d="M64.7136 48.99C64.8912 48.8897 65.1088 48.8897 65.2864 48.99L69.5051 51.3725C70.0751 51.6943 69.7549 52.562 69.1109 52.4408L65.1079 51.6873C65.0366 51.6739 64.9634 51.6739 64.8921 51.6873L60.8891 52.4408C60.2451 52.562 59.9249 51.6943 60.4948 51.3725L64.7136 48.99Z" fill="#222222"/>
<path d="M64.4203 33.548C64.779 33.3421 65.221 33.3421 65.5797 33.548L80.0803 41.8687C80.8536 42.3124 81.82 41.7573 81.82 40.8694V38.1397C81.82 37.7274 81.5988 37.3464 81.2397 37.1404L65.5797 28.1544C65.221 27.9485 64.779 27.9485 64.4203 28.1544L48.7603 37.1404C48.4012 37.3464 48.18 37.7274 48.18 38.1397V40.8694C48.18 41.7573 49.1464 42.3124 49.9197 41.8687L64.4203 33.548Z" fill="#FF8A42"/>
<path d="M64.7136 60.5266C64.8912 60.4263 65.1088 60.4263 65.2864 60.5266L69.5051 62.909C70.0751 63.2309 69.7549 64.0986 69.1109 63.9774L65.1079 63.2238C65.0366 63.2104 64.9634 63.2104 64.8921 63.2238L60.8891 63.9774C60.2451 64.0986 59.9249 63.2309 60.4948 62.909L64.7136 60.5266Z" fill="#222222"/>
<path d="M64.7136 72.0631C64.8912 71.9628 65.1088 71.9628 65.2864 72.0631L69.5051 74.4456C70.0751 74.7674 69.7549 75.6352 69.1109 75.5139L65.1079 74.7604C65.0366 74.747 64.9634 74.747 64.8921 74.7604L60.8891 75.5139C60.2451 75.6352 59.9249 74.7674 60.4948 74.4456L64.7136 72.0631Z" fill="#222222"/>
<path fill-rule="evenodd" clip-rule="evenodd" d="M84.2189 62.0365C84.1825 61.1825 85.0601 60.5871 85.8464 60.9323L104.704 69.212C105.079 69.377 105.339 69.7273 105.387 70.133L108.396 95.6365L122.168 99.681C122.662 99.8258 123 100.276 123 100.787V100.846C123 101.567 122.342 102.112 121.629 101.98L65.2109 91.6084C65.0715 91.5828 64.9285 91.5828 64.7891 91.6084L8.37086 101.98C7.65782 102.112 7 101.567 7 100.846V100.787C7 100.276 7.33842 99.8258 7.8315 99.681L21.3047 95.7244L22.0409 87.3386L30.3004 84.5509C30.7305 84.4057 31.0344 84.0225 31.0762 83.5727C31.1542 82.7327 30.3223 82.1005 29.5278 82.396L22.2367 85.1081L22.6145 80.8045L30.4069 77.4723C30.7771 77.314 31.0306 76.967 31.0676 76.5679C31.1459 75.7248 30.2729 75.1167 29.503 75.478L22.8062 78.621L23.1739 74.4323L30.7733 70.6379C31.067 70.4913 31.2653 70.2058 31.2993 69.8806C31.3781 69.1259 30.5855 68.5838 29.9051 68.9271L23.3677 72.2253L24.3478 61.0611C24.3806 60.6885 24.5929 60.3547 24.9175 60.1658L44.0481 49.0312C44.8356 48.5729 45.8223 49.1565 45.7934 50.0635L45.5912 56.3972C45.5781 56.8079 45.3463 57.1806 44.9827 57.3758L37.152 61.5793C36.7967 61.7701 36.5666 62.1308 36.5447 62.5318L34.9474 91.7181L46.6321 88.2868L48.156 47.7624C48.1709 47.3658 48.3898 47.0046 48.7355 46.8063L64.4203 37.806C64.779 37.6002 65.221 37.6002 65.5797 37.806L81.2645 46.8063C81.6102 47.0046 81.8291 47.3658 81.844 47.7624L83.3679 88.2868L102.974 94.0442L100.748 73.5231C100.7 73.0841 100.405 72.7107 99.9872 72.5612L85.1634 67.2584C84.7199 67.0997 84.417 66.69 84.397 66.2216L84.2189 62.0365ZM76.02 50.918V86.129L65.3285 82.9893C65.1141 82.9264 64.8859 82.9264 64.6715 82.9893L53.98 86.129V50.918C53.98 50.5035 54.2036 50.1209 54.5657 49.9157L64.4257 44.3279C64.7817 44.1261 65.2183 44.1261 65.5743 44.3279L75.4343 49.9157C75.7964 50.1209 76.02 50.5035 76.02 50.918Z" fill="#222222"/>
</svg>
