<svg width="52" height="52" viewBox="0 0 52 52" fill="none" xmlns="http://www.w3.org/2000/svg">
<path d="M21.9304 49.381C24.7263 52.176 27.279 52.1544 30.0534 49.381L33.4429 46.0121C33.7951 45.6825 34.1031 45.55 34.5652 45.55H39.3203C43.2602 45.55 45.0869 43.7449 45.0869 39.7834V35.0284C45.0869 34.5663 45.2193 34.2582 45.549 33.906L48.8953 30.5156C51.7128 27.7422 51.6903 25.1895 48.8953 22.3935L45.549 19.0031C45.2193 18.6744 45.0869 18.3438 45.0869 17.9033V13.1266C45.0869 9.20835 43.2818 7.36004 39.3203 7.36004H34.5652C34.1031 7.36004 33.7951 7.24921 33.4429 6.91862L30.0525 3.55165C27.279 0.755704 24.7263 0.778244 21.9304 3.55165L18.54 6.91956C18.2112 7.24921 17.8806 7.3591 17.4402 7.3591H12.6635C8.72361 7.3591 6.8969 9.16421 6.8969 13.1257V17.9033C6.8969 18.3438 6.78608 18.6734 6.45549 19.004L3.08852 22.3945C0.292569 25.1895 0.315109 27.7422 3.08852 30.5165L6.45643 33.906C6.78608 34.2582 6.89596 34.5663 6.89596 35.0284V39.7834C6.89596 43.7233 8.72361 45.55 12.6625 45.55H17.4402C17.8806 45.55 18.2103 45.6825 18.5409 46.0121L21.9304 49.381ZM24.3958 46.9147L20.2577 42.7541C19.7731 42.2488 19.2669 42.0497 18.585 42.0497H12.6635C10.7044 42.0497 10.3963 41.7426 10.3963 39.7834V33.8619C10.3963 33.2017 10.1981 32.6954 9.71351 32.2108L5.55293 28.0728C4.1667 26.664 4.1667 26.2677 5.55293 24.8589L9.71351 20.7209C10.1981 20.2362 10.3963 19.73 10.3963 19.0482V13.1266C10.3963 11.1449 10.6827 10.8594 12.6635 10.8594H18.585C19.2669 10.8594 19.7731 10.6829 20.2568 10.1766L24.3958 6.01607C25.8045 4.62983 26.2009 4.62983 27.6096 6.01607L31.7477 10.1766C32.2323 10.6838 32.7385 10.8594 33.3988 10.8594H39.3203C41.2794 10.8594 41.5875 11.1675 41.5875 13.1266V19.0482C41.5875 19.73 41.8073 20.2362 42.2919 20.7199L46.4525 24.8589C47.8387 26.2677 47.8387 26.664 46.4525 28.0728L42.2919 32.2108C41.8073 32.6954 41.5875 33.2017 41.5875 33.8619V39.7834C41.5875 41.7426 41.2794 42.0506 39.3203 42.0506H33.3988C32.7385 42.0506 32.2323 42.2479 31.7477 42.755L27.6096 46.9156C26.2009 48.3018 25.8045 48.3009 24.3958 46.9147ZM22.569 37.011C23.2077 37.011 23.6914 36.7461 24.022 36.3498L36.2388 19.2689C36.4802 18.9167 36.6126 18.5203 36.6126 18.1466C36.6126 17.1773 35.8641 16.4072 34.8517 16.4072C34.1257 16.4072 33.7294 16.6495 33.2889 17.2881L22.5024 32.4747L16.933 26.3334C16.5592 25.9155 16.1413 25.7398 15.5909 25.7398C14.5127 25.7398 13.7417 26.4658 13.7417 27.4783C13.7417 27.9188 13.8957 28.3367 14.2047 28.6447L21.2044 36.4371C21.5341 36.7893 21.9529 37.011 22.569 37.011Z" fill="#FF8A42" stroke="#FF8A42"/>
</svg>
