<svg width="50" height="51" viewBox="0 0 50 51" fill="none" xmlns="http://www.w3.org/2000/svg">
<path d="M5.46875 50.144C4.01835 50.144 2.62735 49.5679 1.60176 48.5423C0.57617 47.5167 0 46.1257 0 44.6753L0 5.61279C0 2.59404 2.45 0.144043 5.46875 0.144043H32.0312C35.05 0.144043 37.5 2.59404 37.5 5.61279V44.6753C37.5 44.9399 37.4813 45.2003 37.4438 45.4565H44.5312C44.7384 45.4565 44.9372 45.3742 45.0837 45.2277C45.2302 45.0812 45.3125 44.8825 45.3125 44.6753V26.0347C45.3126 25.9062 45.281 25.7796 45.2205 25.6662C45.16 25.5528 45.0724 25.4561 44.9656 25.3847L41.6687 23.1878C41.4127 23.0171 41.1927 22.7976 41.0215 22.5419C40.8502 22.2861 40.731 21.9992 40.6707 21.6974C40.6103 21.3956 40.61 21.0849 40.6697 20.783C40.7294 20.4811 40.848 20.1939 41.0188 19.9378C41.1895 19.6817 41.409 19.4618 41.6647 19.2905C41.9204 19.1193 42.2073 19.0001 42.5091 18.9397C42.8109 18.8793 43.1216 18.879 43.4236 18.9387C43.7255 18.9985 44.0127 19.1171 44.2688 19.2878L47.5656 21.4847C49.0875 22.5003 50 24.2065 50 26.0347V44.6753C50 46.1257 49.4238 47.5167 48.3982 48.5423C47.3727 49.5679 45.9817 50.144 44.5312 50.144H33.5938C33.386 50.1427 33.1792 50.1154 32.9781 50.0628C32.6698 50.117 32.3542 50.144 32.0312 50.144H22.6562C22.0346 50.144 21.4385 49.8971 20.999 49.4576C20.5594 49.018 20.3125 48.4219 20.3125 47.8003V43.894H17.1875V47.8003C17.1875 48.4219 16.9406 49.018 16.501 49.4576C16.0615 49.8971 15.4654 50.144 14.8438 50.144H5.46875ZM4.6875 44.6753C4.6875 45.1065 5.0375 45.4565 5.46875 45.4565H12.5V41.5503C12.5 40.9287 12.7469 40.3326 13.1865 39.893C13.626 39.4535 14.2221 39.2065 14.8438 39.2065H22.6562C23.2779 39.2065 23.874 39.4535 24.3135 39.893C24.7531 40.3326 25 40.9287 25 41.5503V45.4565H32.0312C32.2384 45.4565 32.4372 45.3742 32.5837 45.2277C32.7302 45.0812 32.8125 44.8825 32.8125 44.6753V5.61279C32.8125 5.40559 32.7302 5.20688 32.5837 5.06037C32.4372 4.91385 32.2384 4.83154 32.0312 4.83154H5.46875C5.26155 4.83154 5.06284 4.91385 4.91632 5.06037C4.76981 5.20688 4.6875 5.40559 4.6875 5.61279V44.6753ZM11.7188 18.894H13.2812C13.9029 18.894 14.499 19.141 14.9385 19.5805C15.3781 20.0201 15.625 20.6162 15.625 21.2378C15.625 21.8594 15.3781 22.4555 14.9385 22.8951C14.499 23.3346 13.9029 23.5815 13.2812 23.5815H11.7188C11.0971 23.5815 10.501 23.3346 10.0615 22.8951C9.62193 22.4555 9.375 21.8594 9.375 21.2378C9.375 20.6162 9.62193 20.0201 10.0615 19.5805C10.501 19.141 11.0971 18.894 11.7188 18.894ZM9.375 11.8628C9.375 11.2412 9.62193 10.645 10.0615 10.2055C10.501 9.76597 11.0971 9.51904 11.7188 9.51904H13.2812C13.9029 9.51904 14.499 9.76597 14.9385 10.2055C15.3781 10.645 15.625 11.2412 15.625 11.8628C15.625 12.4844 15.3781 13.0805 14.9385 13.5201C14.499 13.9596 13.9029 14.2065 13.2812 14.2065H11.7188C11.0971 14.2065 10.501 13.9596 10.0615 13.5201C9.62193 13.0805 9.375 12.4844 9.375 11.8628ZM21.875 21.2378C21.875 20.6162 22.1219 20.0201 22.5615 19.5805C23.001 19.141 23.5971 18.894 24.2188 18.894H25.7812C26.4029 18.894 26.999 19.141 27.4385 19.5805C27.8781 20.0201 28.125 20.6162 28.125 21.2378C28.125 21.8594 27.8781 22.4555 27.4385 22.8951C26.999 23.3346 26.4029 23.5815 25.7812 23.5815H24.2188C23.5971 23.5815 23.001 23.3346 22.5615 22.8951C22.1219 22.4555 21.875 21.8594 21.875 21.2378ZM24.2188 9.51904H25.7812C26.4029 9.51904 26.999 9.76597 27.4385 10.2055C27.8781 10.645 28.125 11.2412 28.125 11.8628C28.125 12.4844 27.8781 13.0805 27.4385 13.5201C26.999 13.9596 26.4029 14.2065 25.7812 14.2065H24.2188C23.5971 14.2065 23.001 13.9596 22.5615 13.5201C22.1219 13.0805 21.875 12.4844 21.875 11.8628C21.875 11.2412 22.1219 10.645 22.5615 10.2055C23.001 9.76597 23.5971 9.51904 24.2188 9.51904ZM9.375 30.6128C9.375 29.9912 9.62193 29.3951 10.0615 28.9555C10.501 28.516 11.0971 28.269 11.7188 28.269H13.2812C13.9029 28.269 14.499 28.516 14.9385 28.9555C15.3781 29.3951 15.625 29.9912 15.625 30.6128C15.625 31.2344 15.3781 31.8305 14.9385 32.2701C14.499 32.7096 13.9029 32.9565 13.2812 32.9565H11.7188C11.0971 32.9565 10.501 32.7096 10.0615 32.2701C9.62193 31.8305 9.375 31.2344 9.375 30.6128ZM24.2188 28.269H25.7812C26.4029 28.269 26.999 28.516 27.4385 28.9555C27.8781 29.3951 28.125 29.9912 28.125 30.6128C28.125 31.2344 27.8781 31.8305 27.4385 32.2701C26.999 32.7096 26.4029 32.9565 25.7812 32.9565H24.2188C23.5971 32.9565 23.001 32.7096 22.5615 32.2701C22.1219 31.8305 21.875 31.2344 21.875 30.6128C21.875 29.9912 22.1219 29.3951 22.5615 28.9555C23.001 28.516 23.5971 28.269 24.2188 28.269Z" fill="#FF8A42"/>
</svg>
