<svg width="27" height="26" viewBox="0 0 27 26" fill="none" xmlns="http://www.w3.org/2000/svg">
<path fill-rule="evenodd" clip-rule="evenodd" d="M26 13C26 19.9036 20.4036 25.5 13.5 25.5C6.59644 25.5 1 19.9036 1 13C1 6.09644 6.59644 0.5 13.5 0.5C20.4036 0.5 26 6.09644 26 13ZM13.5 23.8696C19.5031 23.8696 24.3696 19.0031 24.3696 13C24.3696 6.9969 19.5031 2.13043 13.5 2.13043C7.4969 2.13043 2.63043 6.9969 2.63043 13C2.63043 19.0031 7.4969 23.8696 13.5 23.8696Z" fill="#222222"/>
<path fill-rule="evenodd" clip-rule="evenodd" d="M13.5 7.08967C11.9344 7.08967 10.6144 8.41523 10.6144 10.1142C10.6144 11.8133 11.9344 13.1388 13.5 13.1388C15.0656 13.1388 16.3856 11.8133 16.3856 10.1142C16.3856 8.41523 15.0656 7.08967 13.5 7.08967ZM16.351 13.7253C17.3712 12.867 18.0161 11.5601 18.0161 10.1142C18.0161 7.57194 16.0222 5.45924 13.5 5.45924C10.9778 5.45924 8.98396 7.57194 8.98396 10.1142C8.98396 11.5601 9.62883 12.867 10.649 13.7253C8.15675 14.8348 6.70653 17.3552 6.70653 19.8614C6.70653 20.3116 7.07151 20.6766 7.52174 20.6766C7.97198 20.6766 8.33696 20.3116 8.33696 19.8614C8.33696 17.3027 10.3028 14.7693 13.5 14.7693C16.6972 14.7693 18.663 17.3027 18.663 19.8614C18.663 20.3116 19.028 20.6766 19.4783 20.6766C19.9285 20.6766 20.2935 20.3116 20.2935 19.8614C20.2935 17.3552 18.8433 14.8348 16.351 13.7253Z" fill="#222222"/>
<path d="M16.351 13.7253L16.1096 13.4384C16.0107 13.5216 15.9616 13.6498 15.9797 13.7778C15.9978 13.9057 16.0804 14.0154 16.1985 14.0679L16.351 13.7253ZM10.649 13.7253L10.8015 14.0679C10.9196 14.0154 11.0023 13.9057 11.0203 13.7778C11.0384 13.6498 10.9893 13.5216 10.8904 13.4384L10.649 13.7253ZM13.5 25.875C20.6107 25.875 26.375 20.1107 26.375 13H25.625C25.625 19.6965 20.1965 25.125 13.5 25.125V25.875ZM0.625 13C0.625 20.1107 6.38933 25.875 13.5 25.875V25.125C6.80355 25.125 1.375 19.6965 1.375 13H0.625ZM13.5 0.125C6.38933 0.125 0.625 5.88933 0.625 13H1.375C1.375 6.30355 6.80355 0.875 13.5 0.875V0.125ZM26.375 13C26.375 5.88933 20.6107 0.125 13.5 0.125V0.875C20.1965 0.875 25.625 6.30355 25.625 13H26.375ZM23.9946 13C23.9946 18.796 19.296 23.4946 13.5 23.4946V24.2446C19.7102 24.2446 24.7446 19.2102 24.7446 13H23.9946ZM13.5 2.50543C19.296 2.50543 23.9946 7.20401 23.9946 13H24.7446C24.7446 6.7898 19.7102 1.75543 13.5 1.75543V2.50543ZM3.00543 13C3.00543 7.20401 7.70401 2.50543 13.5 2.50543V1.75543C7.2898 1.75543 2.25543 6.7898 2.25543 13H3.00543ZM13.5 23.4946C7.70401 23.4946 3.00543 18.796 3.00543 13H2.25543C2.25543 19.2102 7.2898 24.2446 13.5 24.2446V23.4946ZM10.9894 10.1142C10.9894 8.6103 12.1533 7.46467 13.5 7.46467V6.71467C11.7154 6.71467 10.2394 8.22017 10.2394 10.1142H10.9894ZM13.5 12.7638C12.1533 12.7638 10.9894 11.6182 10.9894 10.1142H10.2394C10.2394 12.0083 11.7154 13.5138 13.5 13.5138V12.7638ZM16.0106 10.1142C16.0106 11.6182 14.8467 12.7638 13.5 12.7638V13.5138C15.2846 13.5138 16.7606 12.0083 16.7606 10.1142H16.0106ZM13.5 7.46467C14.8467 7.46467 16.0106 8.6103 16.0106 10.1142H16.7606C16.7606 8.22017 15.2846 6.71467 13.5 6.71467V7.46467ZM16.5924 14.0123C17.6958 13.0839 18.3911 11.6726 18.3911 10.1142H17.6411C17.6411 11.4475 17.0465 12.65 16.1096 13.4384L16.5924 14.0123ZM18.3911 10.1142C18.3911 7.37869 16.2429 5.08424 13.5 5.08424V5.83424C15.8015 5.83424 17.6411 7.76518 17.6411 10.1142H18.3911ZM13.5 5.08424C10.7571 5.08424 8.60896 7.37869 8.60896 10.1142H9.35896C9.35896 7.76518 11.1985 5.83424 13.5 5.83424V5.08424ZM8.60896 10.1142C8.60896 11.6726 9.30417 13.0839 10.4076 14.0123L10.8904 13.4384C9.95348 12.65 9.35896 11.4475 9.35896 10.1142H8.60896ZM10.4965 13.3827C7.85881 14.557 6.33153 17.2185 6.33153 19.8614H7.08153C7.08153 17.4919 8.45468 15.1127 10.8015 14.0679L10.4965 13.3827ZM6.33153 19.8614C6.33153 20.5187 6.86441 21.0516 7.52174 21.0516V20.3016C7.27862 20.3016 7.08153 20.1045 7.08153 19.8614H6.33153ZM7.52174 21.0516C8.17908 21.0516 8.71196 20.5187 8.71196 19.8614H7.96196C7.96196 20.1045 7.76487 20.3016 7.52174 20.3016V21.0516ZM8.71196 19.8614C8.71196 17.4856 10.5333 15.1443 13.5 15.1443V14.3943C10.0723 14.3943 7.96196 17.1197 7.96196 19.8614H8.71196ZM13.5 15.1443C16.4667 15.1443 18.288 17.4856 18.288 19.8614H19.038C19.038 17.1197 16.9277 14.3943 13.5 14.3943V15.1443ZM18.288 19.8614C18.288 20.5187 18.8209 21.0516 19.4783 21.0516V20.3016C19.2351 20.3016 19.038 20.1045 19.038 19.8614H18.288ZM19.4783 21.0516C20.1356 21.0516 20.6685 20.5187 20.6685 19.8614H19.9185C19.9185 20.1045 19.7214 20.3016 19.4783 20.3016V21.0516ZM20.6685 19.8614C20.6685 17.2185 19.1412 14.557 16.5035 13.3827L16.1985 14.0679C18.5453 15.1127 19.9185 17.4919 19.9185 19.8614H20.6685Z" fill="#222222"/>
</svg>
