<svg width="54" height="55" viewBox="0 0 54 55" fill="none" xmlns="http://www.w3.org/2000/svg">
<path d="M9.5 37.4631L22 29.9631M32 24.9631L44.5 17.4631M27 9.96313V22.4631M27 9.96313C29.0711 9.96313 30.75 8.2842 30.75 6.21313M27 9.96313C24.9289 9.96313 23.25 8.2842 23.25 6.21313M27 32.4631V44.9631M27 44.9631C24.9289 44.9631 23.25 46.6421 23.25 48.7131M27 44.9631C29.0711 44.9631 30.75 46.6421 30.75 48.7131M9.5 17.4631L22 24.9631M32 29.9631L44.5 37.4631M48.25 19.9631V33.7131M48.25 19.9631C50.3211 19.9631 52 18.2842 52 16.2131C52 14.1421 50.3211 12.4631 48.25 12.4631C46.1789 12.4631 44.5 14.1421 44.5 16.2131C44.5 18.2842 46.1789 19.9631 48.25 19.9631ZM30.75 48.7131L44.5 41.2131M30.75 48.7131C30.75 50.7842 29.0711 52.4631 27 52.4631C24.9289 52.4631 23.25 50.7842 23.25 48.7131M8.25 41.2131L23.25 48.7131M5.75 34.9631V19.9631M5.75 34.9631C3.67893 34.9631 2 36.6421 2 38.7131C2 40.7842 3.67893 42.4631 5.75 42.4631C7.82107 42.4631 9.5 40.7842 9.5 38.7131C9.5 36.6421 7.82107 34.9631 5.75 34.9631ZM5.75 19.9631C7.82107 19.9631 9.5 18.2842 9.5 16.2131C9.5 14.1421 7.82107 12.4631 5.75 12.4631C3.67893 12.4631 2 14.1421 2 16.2131C2 18.2842 3.67893 19.9631 5.75 19.9631ZM8.25 13.7131L23.25 6.21313M23.25 6.21313C23.25 4.14207 24.9289 2.46313 27 2.46313C29.0711 2.46313 30.75 4.14207 30.75 6.21313M45.75 13.7131L30.75 6.21313M52 38.7131C52 40.7842 50.3211 42.4631 48.25 42.4631C46.1789 42.4631 44.5 40.7842 44.5 38.7131C44.5 36.6421 46.1789 34.9631 48.25 34.9631C50.3211 34.9631 52 36.6421 52 38.7131ZM27 21.8381L32 24.6506V30.2756L27 33.0881L22 30.2756V24.6506L27 21.8381Z" stroke="#FF8A42" stroke-width="4" stroke-linecap="round" stroke-linejoin="round"/>
</svg>
